<svg xmlns="http://www.w3.org/2000/svg" width="226.335" height="23.527" viewBox="0 0 226.335 23.527"><path fill="#29363B" d="M1.796.766l.075.067a.747.747 0 0 1 .309.332l5.121 17.096L12.912.781c.07-.144.133-.226.447-.359.235-.142.742-.171 1.082.038.185.079.325.193.385.326l5.63 17.473L25.541 1.2a.8.8 0 0 1 .381-.375l.065-.05a1.511 1.511 0 0 1 1.242-.03c.318.166.571.396.44.728a2256.587 2256.587 0 0 1-6.304 21.468.645.645 0 0 1-.18.189c-.43.551-1.067.5-1.431.018a.547.547 0 0 1-.189-.197L14.262 6.162c-.171-.178-.653-.135-.781-.001l-5.314 16.78a.553.553 0 0 1-.215.219c-.389.188-1.036.18-1.397-.008a.522.522 0 0 1-.187-.203C4.215 15.785 2.145 8.68.05 1.453-.115 1.055.16.89.393.735.805.494 1.408.506 1.796.766zm30.098 21.132l9.788-20.754a1.122 1.122 0 0 1 1.022-.629c.444 0 .845.248 1.023.634l9.696 20.765c.249.549-.026 1.178-.6 1.398a1.089 1.089 0 0 1-.873-.039l-.066-.033a1.026 1.026 0 0 1-.508-.504l-2.438-5.174h-10.01c-1.574 0-2.988.83-3.579 2.113l-1.419 3.066c-.1.213-.275.395-.492.498l-.038.021c-.284.15-.604.164-.896.055-.584-.218-.862-.86-.61-1.417zm16.131-6.322L42.702 3.719l-5.417 11.857h10.74zM60.963.99c0-.468.378-.846.846-.846h.176c.345 0 .673.158.887.436l15.43 19.154V1.573c0-.609.496-1.104 1.105-1.104.61 0 1.105.48 1.105 1.071v21.172c0 .557-.533.758-.878.758h-.058c-.344 0-.663-.16-.872-.428C77.159 21.031 67.402 9.098 63.809 4.6a.346.346 0 0 0-.278-.146.369.369 0 0 0-.39.374v17.231c0 .598-.486 1.092-1.087 1.092-.6 0-1.087-.475-1.087-1.057 0-7.048-.004-14-.004-21.104zm27.445.379a.76.76 0 0 1 .749-.757h7.089c6.916 0 12.262 5.083 12.262 11.307 0 6.316-5.346 11.369-12.262 11.369h-7.089a.76.76 0 0 1-.749-.756V1.369zm7.561 19.808c5.831 0 9.839-3.975 9.839-9.258 0-5.219-4.007-9.194-9.839-9.194h-3.465c-1.025 0-1.854.797-1.854 1.784v15.333c0 .736.62 1.334 1.386 1.334h3.933zM116.021 1.48a.77.77 0 0 1 .781-.757h13.433a1.056 1.056 0 0 1-.002 2.114H119.7c-.773 0-1.404.6-1.404 1.342v6.52h10.354a1.057 1.057 0 0 1-.004 2.114h-8.715c-.902 0-1.635.701-1.635 1.566v6.027c0 .506.426.914.955.914h11.004a1.042 1.042 0 0 1 0 2.082h-13.452a.77.77 0 0 1-.781-.758V1.48zm23.196-.033c.07-.495.363-.727.783-.727h8.451c4.436 0 7.889 3.028 7.889 7.065 0 3.208-2.225 5.78-5.254 6.764l4.209 7.098a1.09 1.09 0 0 1-.426 1.508 1.15 1.15 0 0 1-1.047.051l-.059-.029a1.127 1.127 0 0 1-.533-.467l-4.754-7.719c-.373.02-.711.02-1.086.02h-4.15c-.982 0-1.781.764-1.781 1.707v5.93c0 .445-.41.75-.879.75-.75 0-1.363-.596-1.363-1.322V1.447zm9.164 11.482c3.193 0 5.684-2.197 5.684-5.093 0-2.758-2.477-4.905-5.719-4.905h-5.004c-1.021 0-1.848.8-1.848 1.782v8.216h6.887z"/><path fill="#8F9FBF" d="M165.436 18.841c.359-.068.74.008.998.229.74.627 2.887 2.176 5.857 2.176 3.119 0 5.115-1.797 5.115-3.852 0-2.547-1.803-3.711-6.188-4.998-4.01-1.285-6.746-2.668-6.746-6.501 0-2.535 2.115-5.895 7.709-5.895 2.908 0 5.02 1.044 5.803 1.5.297.176.5.479.541.824.07.553-.305 1.08-.795 1.21-.373.097-.629.05-.895-.111-.637-.381-2.549-1.306-4.686-1.306-4.133 0-5.104 2.188-5.104 3.818 0 2.444 1.514 3.497 5.123 4.527 4.801 1.471 7.871 3.059 7.871 6.941 0 3.393-3.566 5.926-7.783 5.926-3.943 0-6.459-1.883-7.258-2.566a1.096 1.096 0 0 1-.369-.629c-.121-.599.211-1.17.807-1.293zM188.02 1.48c0-.417.352-.757.781-.757h13.434a1.056 1.056 0 1 1-.004 2.114H191.7c-.773 0-1.404.6-1.404 1.342v6.52h10.352a1.056 1.056 0 1 1-.002 2.114h-8.715c-.902 0-1.635.701-1.635 1.566v6.027c0 .506.426.914.953.914h11.004a1.042 1.042 0 0 1 0 2.082h-13.451a.771.771 0 0 1-.781-.758V1.48zm28.982 1.246h-5.738c-.316 0-.619-.146-.814-.396l-.029-.035a1.037 1.037 0 0 1 .815-1.682h14.035c.305 0 .584.123.801.368a1.042 1.042 0 0 1-.016 1.406 1.041 1.041 0 0 1-.768.335h-2.713c-1.682 0-3.092 1.232-3.092 2.751v17.058c0 .447-.451.756-.971.756h-.645c-.477 0-.865-.34-.865-.756V2.726z"/></svg>